<svg id="Layer_2" height="512" viewBox="0 0 128 128" width="512" xmlns="http://www.w3.org/2000/svg" data-name="Layer 2"><path d="m121.243 93.4-5.918.881v-19.181l5.918.88a1.632 1.632 0 0 0 .259.02 1.749 1.749 0 0 0 .255-3.48l-6.432-.957v-11.763a1.75 1.75 0 0 0 -1.75-1.75h-17.692a1.75 1.75 0 0 0 -1.75 1.75v8.6l-5.961-.888v-11.688a1.749 1.749 0 0 0 -1.75-1.75h-17.692a1.75 1.75 0 0 0 -1.75 1.75v8.526l-5.96-.888v-11.608a1.751 1.751 0 0 0 -1.75-1.75h-17.692a1.75 1.75 0 0 0 -1.75 1.75v8.446l-5.961-.889v-11.526a1.75 1.75 0 0 0 -1.75-1.75h-17.692a1.75 1.75 0 0 0 -1.75 1.75v8.365l-5.917-.881a1.75 1.75 0 1 0 -.516 3.461l6.433.958v49.8l-6.433.958a1.75 1.75 0 0 0 .256 3.48 1.779 1.779 0 0 0 .26-.019l5.917-.881v8.37a1.75 1.75 0 0 0 1.75 1.75h17.692a1.75 1.75 0 0 0 1.75-1.75v-11.527l5.961-.889v8.45a1.749 1.749 0 0 0 1.75 1.75h17.692a1.75 1.75 0 0 0 1.75-1.75v-11.612l5.96-.888v8.53a1.751 1.751 0 0 0 1.75 1.75h17.692a1.75 1.75 0 0 0 1.75-1.75v-11.692l5.961-.889v8.611a1.75 1.75 0 0 0 1.75 1.75h17.692a1.75 1.75 0 0 0 1.75-1.75v-11.773l6.432-.957a1.749 1.749 0 1 0 -.514-3.461zm-90.876 26.35h-14.192v-8.537c0-.024 0-.048 0-.071v-52.9c0-.023 0-.047 0-.071v-8.536h14.192zm3.5-13.319v-43.482l5.961.889v41.7zm23.653 9.349h-14.192v-62.18h14.192zm3.5-13.4v-35.38l5.96.888v33.6zm9.46 9.43v-54.236h14.192v54.236zm17.692-13.48v-27.28l5.961.888v25.5zm9.461 9.51v-46.295h14.192v11.569.069 23.017.069 11.571z"/><circle cx="23.271" cy="59.795" r="3"/><circle cx="23.271" cy="109.59" r="3"/><circle cx="50.424" cy="63.786" r="3"/><circle cx="50.424" cy="105.598" r="3"/><circle cx="77.576" cy="67.778" r="3"/><circle cx="77.576" cy="101.606" r="3"/><circle cx="104.729" cy="71.77" r="3"/><circle cx="104.729" cy="97.615" r="3"/><path d="m24.19 13.25h68.11a6.75 6.75 0 1 0 0-3.5h-68.11a1.75 1.75 0 1 0 0 3.5zm74.62-5a3.25 3.25 0 1 1 -3.25 3.25 3.254 3.254 0 0 1 3.25-3.25z"/><path d="m24.19 32h68.11a6.75 6.75 0 1 0 0-3.5h-68.11a1.75 1.75 0 1 0 0 3.5zm74.62-5a3.25 3.25 0 1 1 -3.25 3.25 3.254 3.254 0 0 1 3.25-3.25z"/></svg>